<svg width="719" height="602" viewBox="0 0 719 602" fill="none" xmlns="http://www.w3.org/2000/svg">
<g clip-path="url(#clip0_14101_159216)">
<path d="M633.316 36.5522H0.993073C0.727686 36.5463 0.475159 36.4367 0.289551 36.247C0.103942 36.0572 0 35.8023 0 35.5368C0 35.2714 0.103942 35.0165 0.289551 34.8267C0.475159 34.6369 0.727686 34.5274 0.993073 34.5215H633.316C633.582 34.5274 633.834 34.6369 634.02 34.8267C634.206 35.0165 634.31 35.2714 634.31 35.5368C634.31 35.8023 634.206 36.0572 634.02 36.247C633.834 36.4367 633.582 36.5463 633.316 36.5522Z" fill="#CACACA"/>
<path d="M23.3482 22.3376C29.3821 22.3376 34.2735 17.3372 34.2735 11.1688C34.2735 5.00045 29.3821 0 23.3482 0C17.3143 0 12.4229 5.00045 12.4229 11.1688C12.4229 17.3372 17.3143 22.3376 23.3482 22.3376Z" fill="#3F3D56"/>
<path d="M61.0904 22.3376C67.1243 22.3376 72.0157 17.3372 72.0157 11.1688C72.0157 5.00045 67.1243 0 61.0904 0C55.0565 0 50.165 5.00045 50.165 11.1688C50.165 17.3372 55.0565 22.3376 61.0904 22.3376Z" fill="#3F3D56"/>
<path d="M98.8326 22.3376C104.866 22.3376 109.758 17.3372 109.758 11.1688C109.758 5.00045 104.866 0 98.8326 0C92.7987 0 87.9072 5.00045 87.9072 11.1688C87.9072 17.3372 92.7987 22.3376 98.8326 22.3376Z" fill="#3F3D56"/>
<path d="M610.7 2.76758H583.89C583.358 2.77813 582.852 2.99664 582.48 3.37619C582.108 3.75574 581.899 4.26606 581.899 4.79758C581.899 5.32909 582.108 5.83941 582.48 6.21896C582.852 6.59851 583.358 6.81703 583.89 6.82758H610.7C611.231 6.81703 611.737 6.59851 612.109 6.21896C612.481 5.83941 612.69 5.32909 612.69 4.79758C612.69 4.26606 612.481 3.75574 612.109 3.37619C611.737 2.99664 611.231 2.77813 610.7 2.76758Z" fill="#3F3D56"/>
<path d="M610.7 10.3887H583.89C583.358 10.3992 582.852 10.6177 582.48 10.9973C582.108 11.3768 581.899 11.8872 581.899 12.4187C581.899 12.9502 582.108 13.4605 582.48 13.8401C582.852 14.2196 583.358 14.4381 583.89 14.4487H610.7C611.231 14.4381 611.737 14.2196 612.109 13.8401C612.481 13.4605 612.69 12.9502 612.69 12.4187C612.69 11.8872 612.481 11.3768 612.109 10.9973C611.737 10.6177 611.231 10.3992 610.7 10.3887Z" fill="#3F3D56"/>
<path d="M610.7 17.998H583.89C583.358 18.0086 582.852 18.2271 582.48 18.6067C582.108 18.9862 581.899 19.4965 581.899 20.028C581.899 20.5596 582.108 21.0699 582.48 21.4494C582.852 21.829 583.358 22.0475 583.89 22.058H610.7C611.231 22.0475 611.737 21.829 612.109 21.4494C612.481 21.0699 612.69 20.5596 612.69 20.028C612.69 19.4965 612.481 18.9862 612.109 18.6067C611.737 18.2271 611.231 18.0086 610.7 17.998Z" fill="#3F3D56"/>
<path d="M600.688 70.8359H24.7483C21.5592 70.8407 18.502 72.1097 16.247 74.3647C13.992 76.6197 12.723 79.6768 12.7183 82.8659V84.8059C12.723 87.995 13.992 91.0521 16.247 93.3072C18.502 95.5622 21.5592 96.8312 24.7483 96.8359H600.688C603.877 96.8312 606.934 95.5622 609.19 93.3072C611.445 91.0521 612.714 87.995 612.718 84.8059V82.8659C612.714 79.6768 611.445 76.6197 609.19 74.3647C606.934 72.1097 603.877 70.8407 600.688 70.8359Z" fill="#F0F0F0"/>
<path d="M94.2532 88.6364H39.4303C38.2036 88.6346 37.0279 88.1461 36.1611 87.2781C35.2944 86.4101 34.8076 85.2336 34.8076 84.007C34.8076 82.7803 35.2944 81.6038 36.1611 80.7358C37.0279 79.8678 38.2036 79.3793 39.4303 79.3775H94.2532C100.223 79.2942 100.283 88.7205 94.2532 88.6364Z" fill="white"/>
<path d="M258.253 88.6364H203.43C202.204 88.6346 201.028 88.1461 200.161 87.2781C199.294 86.4101 198.808 85.2336 198.808 84.007C198.808 82.7803 199.294 81.6038 200.161 80.7358C201.028 79.8678 202.204 79.3793 203.43 79.3775H258.253C264.223 79.2942 264.283 88.7205 258.253 88.6364Z" fill="white"/>
<path d="M422.253 88.6364H367.43C366.204 88.6346 365.028 88.1461 364.161 87.2781C363.294 86.4101 362.808 85.2336 362.808 84.007C362.808 82.7803 363.294 81.6038 364.161 80.7358C365.028 79.8678 366.204 79.3793 367.43 79.3775H422.253C428.223 79.2942 428.283 88.7205 422.253 88.6364Z" fill="white"/>
<path d="M577.753 89.1364H522.93C521.702 89.1364 520.525 88.6487 519.657 87.7805C518.789 86.9123 518.301 85.7348 518.301 84.507C518.301 83.2792 518.789 82.1016 519.657 81.2334C520.525 80.3653 521.702 79.8775 522.93 79.8775H577.753C583.723 79.7942 583.783 89.2205 577.753 89.1364Z" fill="#ED7445"/>
<path d="M492.218 70.8359H490.218V96.8359H492.218V70.8359Z" fill="white"/>
<path d="M285.263 455.648H50.2102C48.1158 455.646 46.1079 454.813 44.627 453.332C43.146 451.851 42.313 449.843 42.3105 447.749V413.323C42.313 411.229 43.146 409.221 44.627 407.74C46.1079 406.259 48.1158 405.426 50.2102 405.424H285.263C287.358 405.426 289.366 406.259 290.846 407.74C292.327 409.221 293.16 411.229 293.163 413.323V447.749C293.16 449.843 292.327 451.851 290.846 453.332C289.366 454.813 287.358 455.646 285.263 455.648Z" fill="#F0F0F0"/>
<path d="M262.425 450.319H55.5398C53.4454 450.317 51.4375 449.484 49.9566 448.003C48.4756 446.522 47.6426 444.514 47.6401 442.42V418.656C47.6426 416.561 48.4756 414.553 49.9566 413.072C51.4375 411.591 53.4454 410.758 55.5398 410.756H279.935C282.029 410.758 284.037 411.591 285.518 413.072C286.999 414.553 287.832 416.561 287.834 418.656V424.91C287.827 431.647 285.147 438.105 280.384 442.869C275.62 447.632 269.162 450.312 262.425 450.319Z" fill="white"/>
<path d="M191.062 428.086H96.5881C96.0478 428.086 95.5296 427.872 95.1475 427.49C94.7654 427.108 94.5508 426.589 94.5508 426.049C94.5508 425.509 94.7654 424.991 95.1475 424.608C95.5296 424.226 96.0478 424.012 96.5881 424.012H191.062C191.602 424.012 192.12 424.226 192.502 424.608C192.884 424.991 193.099 425.509 193.099 426.049C193.099 426.589 192.884 427.108 192.502 427.49C192.12 427.872 191.602 428.086 191.062 428.086Z" fill="#E6E6E6"/>
<path d="M238.886 436.42H96.5882C96.3203 436.421 96.0549 436.369 95.8072 436.267C95.5595 436.164 95.3343 436.015 95.1447 435.825C94.955 435.636 94.8046 435.411 94.7019 435.164C94.5992 434.916 94.5464 434.651 94.5464 434.383C94.5464 434.115 94.5992 433.85 94.7019 433.602C94.8046 433.355 94.955 433.13 95.1447 432.941C95.3343 432.752 95.5595 432.602 95.8072 432.5C96.0549 432.397 96.3203 432.345 96.5882 432.346H238.886C239.425 432.347 239.942 432.562 240.323 432.944C240.705 433.326 240.919 433.843 240.919 434.383C240.919 434.923 240.705 435.44 240.323 435.822C239.942 436.204 239.425 436.419 238.886 436.42Z" fill="#E6E6E6"/>
<path d="M300.278 366.035H32.268C30.1294 366.033 28.0791 365.182 26.5669 363.67C25.0547 362.158 24.2041 360.107 24.2017 357.969V153.101C24.2041 150.963 25.0547 148.912 26.567 147.4C28.0792 145.888 30.1295 145.038 32.268 145.035H300.278C302.417 145.038 304.467 145.888 305.979 147.4C307.491 148.912 308.342 150.963 308.344 153.101V357.969C308.342 360.107 307.491 362.158 305.979 363.67C304.467 365.182 302.417 366.033 300.278 366.035Z" fill="white"/>
<path d="M300.278 367.035H32.2681C29.8644 367.032 27.5599 366.076 25.8603 364.377C24.1606 362.677 23.2045 360.372 23.2017 357.969V153.101C23.2045 150.697 24.1606 148.393 25.8603 146.693C27.56 144.994 29.8644 144.038 32.2681 144.035H300.278C302.682 144.038 304.986 144.994 306.686 146.693C308.385 148.393 309.341 150.697 309.344 153.101V357.969C309.341 360.372 308.385 362.677 306.686 364.377C304.986 366.076 302.682 367.032 300.278 367.035ZM32.2681 146.035C30.3947 146.037 28.5986 146.782 27.2738 148.107C25.9491 149.432 25.2039 151.228 25.2017 153.101V357.969C25.2038 359.842 25.9489 361.638 27.2737 362.963C28.5984 364.288 30.3946 365.033 32.2681 365.035H300.278C302.151 365.033 303.947 364.288 305.272 362.963C306.597 361.638 307.342 359.842 307.344 357.969V153.101C307.342 151.228 306.597 149.432 305.272 148.107C303.947 146.782 302.151 146.037 300.278 146.035L32.2681 146.035Z" fill="#F0F0F0"/>
<path d="M24.8208 327.035V357.969C24.8237 359.943 25.6093 361.836 27.0053 363.232C28.4013 364.628 30.2938 365.413 32.268 365.416H300.278C302.253 365.413 304.145 364.628 305.541 363.232C306.937 361.836 307.723 359.943 307.726 357.969V327.035H24.8208Z" fill="#F0F0F0"/>
<path d="M27.3463 146.341L26.2681 148.025L307.186 327.878L308.264 326.194L27.3463 146.341Z" fill="#F0F0F0"/>
<path d="M307.979 146.341L27.061 326.193L28.1392 327.877L309.057 148.025L307.979 146.341Z" fill="#F0F0F0"/>
<path d="M545.364 587.788L532.974 587.787L527.079 539.998L545.366 539.999L545.364 587.788Z" fill="#A0616A"/>
<path d="M545.033 583.739L531.813 578.369L531.423 578.209L524.123 583.739C520.117 583.738 516.266 585.285 513.372 588.055C510.479 590.826 508.767 594.607 508.593 598.609C508.573 598.829 508.573 599.059 508.573 599.289V599.799H548.523V583.739H545.033Z" fill="#2F2E41"/>
<path d="M516.348 576.259L504.66 580.371L483.238 537.246L500.488 531.178L516.348 576.259Z" fill="#A0616A"/>
<path d="M514.693 572.547L500.44 571.869L500.019 571.848L494.969 579.487C491.19 580.816 488.07 583.553 486.26 587.127C484.45 590.701 484.09 594.836 485.255 598.669C485.309 598.883 485.385 599.1 485.461 599.317L485.631 599.798L523.316 586.538L517.985 571.389L514.693 572.547Z" fill="#2F2E41"/>
<path d="M549.742 381.73C561.077 381.291 547.036 471.62 547.036 471.62C547.036 471.62 551.143 550.925 550.272 555.087C549.402 559.249 550.162 570.474 550.162 570.474C547.942 566.432 525.03 569.482 525.03 569.482L521.913 489.106L506 424.707L483.938 467.875L505.083 534.136C505.083 534.136 513.647 542.059 512.736 545.191C511.826 548.322 489.395 555.384 485.273 555.544C481.152 555.704 483.013 550.471 482.813 545.319C482.613 540.167 463.217 492.415 456.395 476.167C449.573 459.919 454.877 437.009 458.359 420.362C461.841 403.715 480.162 372.474 480.162 372.474C502.904 346.824 538.407 382.17 549.742 381.73Z" fill="#2F2E41"/>
<path d="M411.605 308.732C412.226 309.918 413.099 310.954 414.164 311.766C415.228 312.578 416.458 313.147 417.766 313.433C419.074 313.719 420.429 313.714 421.735 313.419C423.041 313.125 424.267 312.547 425.325 311.728L452.584 329.512L452.501 312.599L426.629 298.304C425.134 296.616 423.072 295.536 420.834 295.267C418.596 294.998 416.337 295.56 414.485 296.845C412.633 298.13 411.317 300.05 410.786 302.241C410.255 304.432 410.547 306.742 411.605 308.732Z" fill="#A0616A"/>
<path d="M543.855 396.211C515.745 396.212 500.254 390.585 492.028 385.561C481.97 379.417 480.248 372.938 480.18 372.665L480.16 372.587L481.139 360.267L481.567 359.308C483.541 354.891 483.802 349.899 482.302 345.301L482.271 345.206L482.279 345.107L488.852 259.863L512.111 252.244L518.878 245.445L549.005 245.008L553.203 253.518L576.954 262.459L565.286 331.916L559.692 341.558L561.943 352.061L561.927 352.155L554.589 395.955L554.185 395.973C550.566 396.135 547.122 396.214 543.855 396.211Z" fill="#3F3D56"/>
<path d="M471.133 343.03L460.106 336.491L459.415 335.493C458.011 333.473 456.153 331.811 453.99 330.639C451.827 329.467 449.419 328.818 446.961 328.745L446.832 328.741L431.644 319.812L437.94 301.368L461.75 308.403L478.349 267.158C479.261 264.893 480.783 262.925 482.746 261.473C484.709 260.021 487.037 259.143 489.47 258.935C491.903 258.727 494.346 259.198 496.527 260.295C498.708 261.393 500.542 263.074 501.825 265.152C503.139 267.323 503.82 269.819 503.792 272.357V299.344L503.692 299.478L471.133 343.03Z" fill="#3F3D56"/>
<path d="M544.86 380.348C545.095 379.03 545.617 377.779 546.389 376.685C547.16 375.59 548.162 374.678 549.324 374.013C550.486 373.348 551.779 372.945 553.113 372.834C554.448 372.722 555.79 372.905 557.046 373.369L577.702 348.217L582.704 364.373L562.322 385.781C561.403 387.839 559.762 389.489 557.708 390.418C555.654 391.347 553.33 391.49 551.178 390.82C549.025 390.151 547.193 388.715 546.029 386.785C544.864 384.854 544.448 382.564 544.86 380.348Z" fill="#A0616A"/>
<path d="M575.745 377.169L562.028 363.451L570.76 342.176L583.414 324.898C569.93 318.334 559.808 302.783 552.474 289.91L552.392 289.765L554.218 275.462C554.645 272.116 555.985 268.953 558.091 266.319C559.923 264.028 562.276 262.209 564.955 261.014C567.633 259.819 570.559 259.283 573.487 259.45C576.415 259.617 579.261 260.483 581.786 261.976C584.31 263.468 586.441 265.543 588 268.028L612.592 322.696L612.315 323.109L592.535 356.828L587.136 360.329L575.745 377.169Z" fill="#3F3D56"/>
<path d="M555.573 216.333C554.669 222.925 551.185 228.888 545.886 232.912C540.588 236.937 533.909 238.693 527.316 237.796C520.723 236.899 514.756 233.421 510.726 228.127C506.696 222.833 504.932 216.156 505.822 209.562L505.871 209.206C506.911 202.7 510.467 196.864 515.771 192.957C521.075 189.049 527.703 187.384 534.224 188.319C540.746 189.254 546.638 192.715 550.631 197.956C554.623 203.197 556.395 209.796 555.565 216.332L555.573 216.333Z" fill="#A0616A"/>
<path d="M549.184 229.263C550.473 226.644 551.798 223.833 551.435 220.936C551.073 218.04 548.233 215.271 545.443 216.132C543.776 216.647 542.515 218.294 540.772 218.378C538.373 218.494 536.997 215.749 536.251 213.466L533.21 204.169C530.289 206.445 526.903 208.048 523.292 208.864C519.68 209.681 515.934 209.689 512.319 208.89C509.495 208.245 506.643 206.986 504.986 204.61C503.33 202.234 503.34 198.548 505.612 196.752C506.726 195.871 508.208 195.536 509.273 194.596C509.933 194.013 510.388 193.232 510.57 192.371C510.753 191.509 510.653 190.611 510.286 189.81C509.918 189.01 509.303 188.348 508.53 187.925C507.758 187.501 506.87 187.337 505.997 187.457L513.654 186.5L511.373 182.374C512.24 182.964 513.221 183.367 514.252 183.556C515.284 183.746 516.344 183.717 517.364 183.473C519.424 183.102 521.364 182.254 523.38 181.689C528.265 180.441 533.423 180.822 538.072 182.774C542.72 184.726 546.604 188.142 549.134 192.503C551.018 191.874 553.049 191.832 554.958 192.383C556.866 192.934 558.562 194.052 559.821 195.589C561.871 198.191 562.428 201.662 562.508 204.973C562.657 211.502 561.233 217.971 558.357 223.834C557.533 225.696 556.348 227.377 554.871 228.779C554.127 229.475 553.241 229.999 552.273 230.316C551.305 230.632 550.28 230.733 549.269 230.611" fill="#2F2E41"/>
<path d="M142.373 203.434C142.783 209.281 144.506 214.96 147.413 220.05C153.54 230.811 164.048 238.602 175.365 243.233C189.504 249.018 205.265 249.197 220.27 247.906C234.207 246.708 248.001 243.931 261.99 243.358C272.807 243.012 283.636 243.27 294.425 244.132C315.356 245.618 336.201 248.374 356.911 251.716C362.52 252.61 368.117 253.57 373.703 254.597C374.23 254.644 374.753 254.741 375.262 254.887C375.363 254.929 375.527 254.896 375.619 254.955C375.788 255.061 374.937 254.685 375.453 255.112C376.172 255.865 376.812 256.69 377.365 257.572L385.014 267.416C387.208 270.238 389.243 273.668 392.078 275.893C394.077 277.437 396.488 278.355 399.008 278.531C401.528 278.706 404.043 278.132 406.237 276.88C408.529 275.432 410.357 273.356 411.503 270.899C413.262 267.672 415.361 264.642 417.764 261.861C426.864 251.245 439.511 244.716 450.089 235.784C455.213 231.634 459.585 226.636 463.017 221.006C465.944 215.911 467.764 210.256 468.358 204.411C469.625 192.54 465.982 180.433 459.855 170.334C453.191 159.484 443.617 150.721 432.221 145.041C419.419 138.518 405.253 135.342 391.053 133.758C375.977 132.077 360.725 132.083 345.575 132.252C328.573 132.442 311.601 133.189 294.66 134.496C277.696 135.809 260.799 137.675 243.969 140.095C227.819 142.417 211.473 144.837 195.665 148.945C181.7 152.574 167.774 158.247 157.346 168.526C148.074 177.665 141.625 190.171 142.373 203.434Z" fill="#ED7445"/>
<path d="M220.434 207.209C219.744 207.178 219.067 207.005 218.447 206.699C217.827 206.394 217.277 205.964 216.832 205.435C216.386 204.907 216.055 204.292 215.859 203.629C215.662 202.967 215.605 202.271 215.691 201.585L216.05 198.76C216.119 198.218 216.055 197.668 215.863 197.156C215.672 196.645 215.36 196.187 214.953 195.823L212.831 193.927C212.136 193.306 211.629 192.504 211.366 191.61C211.104 190.716 211.097 189.766 211.346 188.868C211.595 187.971 212.091 187.161 212.776 186.53C213.462 185.899 214.31 185.473 215.226 185.299L218.023 184.767C218.559 184.666 219.063 184.435 219.49 184.096C219.917 183.756 220.256 183.318 220.476 182.818L221.624 180.211C222 179.359 222.607 178.628 223.376 178.103C224.145 177.577 225.046 177.277 225.977 177.237C226.908 177.197 227.831 177.418 228.643 177.875C229.455 178.332 230.122 179.006 230.571 179.823L231.939 182.319C232.202 182.798 232.577 183.206 233.033 183.508C233.488 183.81 234.01 183.997 234.554 184.052L237.386 184.338C238.313 184.432 239.195 184.783 239.933 185.352C240.67 185.921 241.234 186.685 241.56 187.558C241.886 188.431 241.962 189.377 241.778 190.291C241.594 191.204 241.158 192.048 240.52 192.726L238.569 194.8C238.195 195.197 237.923 195.68 237.777 196.206C237.631 196.732 237.615 197.285 237.731 197.819L238.333 200.603C238.53 201.513 238.468 202.461 238.155 203.338C237.841 204.215 237.289 204.987 236.56 205.567C235.831 206.146 234.954 206.511 234.029 206.618C233.103 206.725 232.167 206.572 231.324 206.175L228.749 204.961C228.255 204.727 227.712 204.617 227.166 204.641C226.62 204.664 226.088 204.821 225.617 205.096L223.156 206.529C222.332 207.011 221.388 207.247 220.434 207.209Z" fill="white"/>
<path d="M260.529 206.044C259.258 205.986 258.057 205.449 257.165 204.543C256.627 203.972 256.225 203.286 255.99 202.537C255.756 201.788 255.694 200.996 255.811 200.22L256.141 197.628C256.211 197.076 256.146 196.515 255.951 195.994C255.756 195.473 255.438 195.007 255.023 194.636L253.055 192.878C252.474 192.382 252.011 191.763 251.7 191.067C251.389 190.37 251.237 189.612 251.255 188.849C251.298 187.719 251.724 186.637 252.463 185.78C253.201 184.923 254.209 184.343 255.32 184.134L258.085 183.609C258.632 183.505 259.145 183.27 259.581 182.923C260.016 182.577 260.361 182.13 260.585 181.62L261.615 179.281C261.984 178.393 262.59 177.623 263.367 177.058C264.145 176.492 265.063 176.152 266.022 176.074C266.961 176.021 267.896 176.236 268.718 176.693C269.54 177.15 270.215 177.832 270.665 178.658L272.018 181.125C272.286 181.613 272.668 182.029 273.133 182.337C273.597 182.644 274.129 182.834 274.683 182.89L277.308 183.155C278.069 183.215 278.808 183.444 279.469 183.825C280.131 184.206 280.699 184.73 281.133 185.359C281.761 186.299 282.052 187.424 281.958 188.551C281.864 189.677 281.39 190.739 280.614 191.561L278.687 193.611C278.306 194.016 278.029 194.507 277.88 195.043C277.731 195.578 277.715 196.142 277.832 196.686L278.388 199.256C278.566 199.998 278.577 200.771 278.421 201.518C278.264 202.264 277.943 202.967 277.482 203.575C276.785 204.468 275.805 205.097 274.702 205.358C273.6 205.619 272.442 205.496 271.419 205.01L268.87 203.809C268.367 203.572 267.814 203.461 267.259 203.485C266.704 203.509 266.163 203.668 265.683 203.947L263.25 205.364C262.427 205.846 261.482 206.082 260.529 206.044Z" fill="white"/>
<path d="M300.728 205.875C300.038 205.844 299.361 205.671 298.741 205.365C298.121 205.06 297.571 204.63 297.126 204.101C296.68 203.573 296.349 202.958 296.153 202.295C295.956 201.633 295.899 200.937 295.985 200.251L296.344 197.426C296.413 196.884 296.349 196.334 296.157 195.822C295.966 195.311 295.654 194.853 295.246 194.489L293.125 192.593C292.43 191.973 291.922 191.17 291.66 190.276C291.398 189.382 291.391 188.432 291.64 187.534C291.889 186.637 292.385 185.827 293.07 185.196C293.756 184.565 294.604 184.139 295.52 183.965L298.317 183.433C298.853 183.332 299.357 183.101 299.784 182.762C300.211 182.422 300.55 181.984 300.77 181.484L301.918 178.877C302.294 178.025 302.901 177.294 303.67 176.769C304.439 176.243 305.34 175.943 306.271 175.903C307.202 175.863 308.125 176.084 308.937 176.541C309.749 176.997 310.416 177.672 310.865 178.489L312.233 180.985C312.496 181.464 312.871 181.872 313.327 182.174C313.782 182.476 314.304 182.663 314.848 182.718L317.68 183.004C318.607 183.098 319.489 183.449 320.227 184.018C320.964 184.587 321.528 185.351 321.854 186.224C322.18 187.097 322.256 188.043 322.072 188.957C321.888 189.87 321.452 190.714 320.814 191.392L318.863 193.466C318.489 193.863 318.217 194.346 318.071 194.872C317.925 195.398 317.909 195.951 318.025 196.485L318.627 199.269C318.823 200.179 318.762 201.127 318.448 202.004C318.135 202.881 317.583 203.653 316.854 204.233C316.125 204.812 315.248 205.177 314.323 205.284C313.397 205.391 312.46 205.238 311.618 204.841L309.043 203.627C308.549 203.393 308.006 203.283 307.46 203.307C306.914 203.33 306.382 203.487 305.91 203.762L303.45 205.195C302.626 205.677 301.682 205.913 300.728 205.875Z" fill="white"/>
<path opacity="0.2" d="M339.829 204.815C339.138 204.784 338.462 204.61 337.842 204.305C337.222 203.999 336.672 203.569 336.226 203.041C335.781 202.512 335.449 201.898 335.253 201.235C335.057 200.572 335 199.876 335.086 199.19L335.445 196.366C335.513 195.824 335.449 195.273 335.258 194.762C335.067 194.25 334.754 193.793 334.347 193.429L332.225 191.533C331.53 190.912 331.023 190.109 330.761 189.215C330.498 188.321 330.491 187.372 330.74 186.474C330.99 185.576 331.485 184.766 332.171 184.135C332.856 183.504 333.705 183.078 334.62 182.904L337.418 182.373C337.954 182.271 338.457 182.041 338.885 181.701C339.312 181.362 339.65 180.923 339.871 180.424L341.019 177.816C341.395 176.964 342.001 176.234 342.771 175.708C343.54 175.183 344.441 174.883 345.371 174.843C346.302 174.802 347.226 175.023 348.037 175.48C348.849 175.937 349.517 176.612 349.965 177.429L351.334 179.925C351.596 180.404 351.972 180.812 352.427 181.114C352.883 181.416 353.405 181.602 353.948 181.657L356.78 181.943C357.707 182.037 358.589 182.388 359.327 182.957C360.065 183.526 360.629 184.291 360.955 185.163C361.281 186.036 361.356 186.983 361.172 187.896C360.988 188.809 360.553 189.653 359.914 190.332L357.964 192.405C357.589 192.803 357.317 193.285 357.171 193.811C357.025 194.337 357.01 194.891 357.125 195.424L357.727 198.209C357.924 199.119 357.862 200.066 357.549 200.943C357.236 201.821 356.683 202.593 355.954 203.172C355.225 203.752 354.348 204.116 353.423 204.223C352.498 204.331 351.561 204.177 350.718 203.78L348.143 202.567C347.65 202.333 347.106 202.223 346.56 202.246C346.015 202.27 345.483 202.426 345.011 202.701L342.55 204.134C341.727 204.616 340.782 204.852 339.829 204.815Z" fill="black"/>
<path opacity="0.2" d="M378.93 203.754C378.24 203.723 377.563 203.549 376.943 203.244C376.323 202.939 375.773 202.508 375.328 201.98C374.882 201.452 374.551 200.837 374.355 200.174C374.158 199.512 374.102 198.816 374.187 198.13L374.546 195.305C374.615 194.763 374.551 194.213 374.359 193.701C374.168 193.19 373.856 192.732 373.449 192.368L371.327 190.472C370.632 189.851 370.125 189.049 369.862 188.155C369.6 187.261 369.593 186.311 369.842 185.413C370.091 184.516 370.587 183.706 371.272 183.075C371.958 182.444 372.806 182.017 373.722 181.844L376.519 181.312C377.055 181.211 377.559 180.98 377.986 180.641C378.413 180.301 378.752 179.863 378.972 179.363L380.12 176.756C380.496 175.903 381.103 175.173 381.872 174.648C382.641 174.122 383.542 173.822 384.473 173.782C385.404 173.742 386.327 173.962 387.139 174.419C387.951 174.876 388.618 175.551 389.067 176.368L390.435 178.864C390.698 179.343 391.073 179.751 391.529 180.053C391.984 180.355 392.506 180.542 393.05 180.597L395.882 180.883C396.809 180.977 397.691 181.328 398.429 181.897C399.166 182.466 399.73 183.23 400.056 184.103C400.382 184.976 400.458 185.922 400.274 186.836C400.09 187.749 399.654 188.593 399.016 189.271L397.065 191.345C396.691 191.742 396.419 192.225 396.273 192.751C396.127 193.277 396.111 193.83 396.227 194.364L396.829 197.148C397.026 198.058 396.964 199.006 396.651 199.883C396.337 200.76 395.785 201.532 395.056 202.112C394.327 202.691 393.45 203.056 392.525 203.163C391.599 203.27 390.663 203.117 389.82 202.72L387.245 201.506C386.751 201.272 386.208 201.162 385.662 201.186C385.116 201.209 384.584 201.365 384.113 201.641L381.652 203.074C380.828 203.556 379.884 203.792 378.93 203.754Z" fill="black"/>
<path d="M628.041 537.369L629.185 511.65C641.109 505.276 654.409 501.909 667.93 501.842C649.321 517.056 651.647 546.383 639.031 566.841C635.047 573.192 629.685 578.565 623.343 582.562C617 586.559 609.84 589.077 602.391 589.931L586.819 599.465C584.682 587.553 585.154 575.319 588.2 563.607C591.247 551.894 596.796 540.981 604.466 531.62C608.821 526.411 613.815 521.771 619.329 517.81C623.059 527.644 628.041 537.369 628.041 537.369Z" fill="#F2F2F2"/>
<path d="M717.319 601.717H299.937C299.621 601.717 299.318 601.592 299.095 601.369C298.872 601.145 298.746 600.842 298.746 600.527C298.746 600.211 298.872 599.908 299.095 599.685C299.318 599.461 299.621 599.336 299.937 599.336H717.319C717.635 599.336 717.937 599.461 718.161 599.685C718.384 599.908 718.509 600.211 718.509 600.527C718.509 600.842 718.384 601.145 718.161 601.369C717.937 601.592 717.635 601.717 717.319 601.717Z" fill="#CACACA"/>
</g>
<defs>
<clipPath id="clip0_14101_159216">
<rect width="718.509" height="601.718" fill="white"/>
</clipPath>
</defs>
</svg>
