<svg width="20" height="20" viewBox="0 0 20 20" fill="none" xmlns="http://www.w3.org/2000/svg">
<path d="M8.345 20C7.895 20 7.50767 19.85 7.183 19.55C6.85833 19.25 6.66233 18.8833 6.595 18.45L6.37 16.8C6.15333 16.7167 5.94933 16.6167 5.758 16.5C5.56667 16.3833 5.379 16.2583 5.195 16.125L3.645 16.775C3.22833 16.9583 2.81167 16.975 2.395 16.825C1.97833 16.675 1.65333 16.4083 1.42 16.025L0.245 13.975C0.0116665 13.5917 -0.055 13.1833 0.045 12.75C0.145 12.3167 0.37 11.9583 0.72 11.675L2.045 10.675C2.02833 10.5583 2.02 10.4457 2.02 10.337V9.662C2.02 9.554 2.02833 9.44167 2.045 9.325L0.72 8.325C0.37 8.04167 0.145 7.68333 0.045 7.25C-0.055 6.81667 0.0116665 6.40833 0.245 6.025L1.42 3.975C1.65333 3.59167 1.97833 3.325 2.395 3.175C2.81167 3.025 3.22833 3.04167 3.645 3.225L5.195 3.875C5.37833 3.74167 5.57 3.61667 5.77 3.5C5.97 3.38333 6.17 3.28333 6.37 3.2L6.595 1.55C6.66167 1.11667 6.85767 0.75 7.183 0.45C7.50833 0.15 7.89567 0 8.345 0H10.695C11.145 0 11.5327 0.15 11.858 0.45C12.1833 0.75 12.379 1.11667 12.445 1.55L12.67 3.2C12.8867 3.28333 13.091 3.38333 13.283 3.5C13.475 3.61667 13.6623 3.74167 13.845 3.875L15.395 3.225C15.8117 3.04167 16.2283 3.025 16.645 3.175C17.0617 3.325 17.3867 3.59167 17.62 3.975L18.795 6.025C19.0283 6.40833 19.095 6.81667 18.995 7.25C18.895 7.68333 18.67 8.04167 18.32 8.325L16.995 9.325C17.0117 9.44167 17.02 9.55433 17.02 9.663V10.337C17.02 10.4457 17.0033 10.5583 16.97 10.675L18.295 11.675C18.645 11.9583 18.87 12.3167 18.97 12.75C19.07 13.1833 19.0033 13.5917 18.77 13.975L17.57 16.025C17.3367 16.4083 17.0117 16.675 16.595 16.825C16.1783 16.975 15.7617 16.9583 15.345 16.775L13.845 16.125C13.6617 16.2583 13.47 16.3833 13.27 16.5C13.07 16.6167 12.87 16.7167 12.67 16.8L12.445 18.45C12.3783 18.8833 12.1827 19.25 11.858 19.55C11.5333 19.85 11.1457 20 10.695 20H8.345ZM9.57 13.5C10.5367 13.5 11.3617 13.1583 12.045 12.475C12.7283 11.7917 13.07 10.9667 13.07 10C13.07 9.03333 12.7283 8.20833 12.045 7.525C11.3617 6.84167 10.5367 6.5 9.57 6.5C8.58667 6.5 7.75733 6.84167 7.082 7.525C6.40667 8.20833 6.06933 9.03333 6.07 10C6.07067 10.9667 6.40833 11.7917 7.083 12.475C7.75767 13.1583 8.58667 13.5 9.57 13.5Z" fill="#FF6B35"/>
</svg>
